<?xml version="1.0" standalone="no"?>
<!DOCTYPE svg PUBLIC "-//W3C//DTD SVG 20010904//EN"
 "http://www.w3.org/TR/2001/REC-SVG-20010904/DTD/svg10.dtd">
<svg version="1.0" xmlns="http://www.w3.org/2000/svg"
 width="700.000000pt" height="700.000000pt" viewBox="0 0 700.000000 700.000000"
 preserveAspectRatio="xMidYMid meet">
<metadata>
Created by potrace 1.14, written by Peter Selinger 2001-2017
</metadata>
<g transform="translate(0.000000,700.000000) scale(0.100000,-0.100000)"
fill="#000000" stroke="none">
<path d="M3512 6269 c-6 -13 -262 -665 -571 -1448 -309 -783 -559 -1427 -554
-1430 50 -38 350 -231 358 -231 7 0 158 372 336 827 178 455 333 837 344 850
28 32 73 38 110 15 32 -20 34 -25 150 -394 l47 -148 224 0 c123 0 224 3 224 7
0 14 -643 1959 -651 1967 -5 5 -12 -1 -17 -15z"/>
<path d="M475 4142 c23 -22 2383 -1832 2390 -1832 10 0 365 252 365 259 0 4
-335 243 -743 529 -409 287 -752 531 -762 542 -28 31 -25 85 8 117 l27 27 267
12 c148 7 278 13 289 13 18 1 31 25 84 167 34 91 60 167 58 169 -2 2 -453 7
-1003 11 -999 6 -1000 6 -980 -14z"/>
<path d="M3312 4076 c-11 -28 -47 -120 -81 -205 l-60 -154 382 7 c210 3 642 9
959 12 l577 7 30 -31 c40 -40 41 -81 4 -121 -16 -16 -120 -89 -233 -161 -113
-73 -211 -138 -219 -146 -13 -11 -6 -43 49 -229 36 -118 68 -215 73 -215 7 0
316 225 1495 1089 139 102 250 186 245 188 -4 1 -726 3 -1605 6 l-1596 5 -20
-52z"/>
<path d="M3954 3533 c192 -627 526 -1752 526 -1774 0 -43 -39 -79 -86 -79 -32
0 -63 19 -231 146 -107 80 -198 144 -202 142 -21 -8 -341 -203 -341 -208 0 -8
1581 -1102 1586 -1097 3 2 -166 600 -375 1328 -208 728 -394 1377 -412 1442
l-32 117 -219 0 c-204 0 -219 -1 -214 -17z"/>
<path d="M3549 2557 c-1102 -765 -1172 -811 -1213 -811 -29 0 -43 6 -62 27
-13 16 -24 39 -24 53 0 14 47 136 105 271 58 134 105 248 105 253 0 13 -304
270 -311 262 -10 -10 -662 -1933 -657 -1937 7 -8 2593 1616 2596 1630 3 14
-124 486 -138 513 -4 9 -126 -70 -401 -261z"/>
</g>
</svg>
